<?xml version="1.0" encoding="UTF-8" standalone="no"?>
<svg
   xmlns:dc="http://purl.org/dc/elements/1.1/"
   xmlns:cc="http://creativecommons.org/ns#"
   xmlns:rdf="http://www.w3.org/1999/02/22-rdf-syntax-ns#"
   xmlns:svg="http://www.w3.org/2000/svg"
   xmlns="http://www.w3.org/2000/svg"
   y="0px"
   xml:space="preserve"
   x="0px"
   width="300px"
   viewBox="0 0 300 100"
   version="1.1"
   preserveAspectRatio="none"
   id="Layer_1"
   height="100px"
   enable-background="new 0 0 300 100"
   class="pricing-deco-img"><metadata
     id="metadata15"><rdf:RDF><cc:Work
         rdf:about=""><dc:format>image/svg+xml</dc:format><dc:type
           rdf:resource="http://purl.org/dc/dcmitype/StillImage" /></cc:Work></rdf:RDF></metadata><defs
     id="defs13" /><path
     id="path2"
     opacity="0.6"
     fill="#FFFFFF"
     d="M30.913,43.944c0,0,42.911-34.464,87.51-14.191c77.31,35.14,113.304-1.952,146.638-4.729c48.654-4.056,69.94,16.218,69.94,16.218v54.396H30.913V43.944z"
     class="deco-layer deco-layer--1" /><path
     id="path4"
     opacity="0.6"
     fill="#FFFFFF"
     d="M-35.667,44.628c0,0,42.91-34.463,87.51-14.191c77.31,35.141,113.304-1.952,146.639-4.729c48.653-4.055,69.939,16.218,69.939,16.218v54.396H-35.667V44.628z"
     class="deco-layer deco-layer--2" /><path
     id="path6"
     opacity="0.7"
     fill="#FFFFFF"
     d="M43.415,98.342c0,0,48.283-68.927,109.133-68.927c65.886,0,97.983,67.914,97.983,67.914v3.716H42.401L43.415,98.342z"
     class="deco-layer deco-layer--3" /><path
     id="path8"
     fill="#FFFFFF"
     d="M-34.667,62.998c0,0,56-45.667,120.316-27.839C167.484,57.842,197,41.332,232.286,30.428c53.07-16.399,104.047,36.903,104.047,36.903l1.333,36.667l-372-2.954L-34.667,62.998z"
     class="deco-layer deco-layer--4" /></svg>